<mxfile host="app.diagrams.net" modified="2024-03-29T15:18:50.888Z" agent="Mozilla/5.0 (Windows NT 10.0; Win64; x64) AppleWebKit/537.36 (KHTML, like Gecko) Chrome/123.0.0.0 Safari/537.36" etag="QqVeP4f4cSVb71cFO_bO" version="24.2.0" type="device">
  <diagram name="Page-1" id="v4ambu9KIKQIkoCVkJ-7">
    <mxGraphModel dx="1573" dy="567" grid="1" gridSize="10" guides="1" tooltips="1" connect="1" arrows="1" fold="1" page="1" pageScale="1" pageWidth="827" pageHeight="1169" math="0" shadow="0">
      <root>
        <mxCell id="0" />
        <mxCell id="1" parent="0" />
        <mxCell id="zeU5nnRij6K2paPK8wIY-6" style="edgeStyle=orthogonalEdgeStyle;rounded=0;orthogonalLoop=1;jettySize=auto;html=1;entryX=0;entryY=0.5;entryDx=0;entryDy=0;endArrow=none;endFill=0;" parent="1" source="kqpqIyKLuoKsHnQKHVMU-1" edge="1">
          <mxGeometry relative="1" as="geometry">
            <mxPoint x="240" y="150.0000000000001" as="targetPoint" />
          </mxGeometry>
        </mxCell>
        <mxCell id="zeU5nnRij6K2paPK8wIY-8" value="2 : GetAssignedPSCs()" style="edgeLabel;html=1;align=center;verticalAlign=middle;resizable=0;points=[];" parent="zeU5nnRij6K2paPK8wIY-6" vertex="1" connectable="0">
          <mxGeometry x="0.0602" relative="1" as="geometry">
            <mxPoint y="-30" as="offset" />
          </mxGeometry>
        </mxCell>
        <mxCell id="kqpqIyKLuoKsHnQKHVMU-1" value="User (UserRole: GUARD)" style="shape=umlActor;verticalLabelPosition=bottom;verticalAlign=top;html=1;outlineConnect=0;" parent="1" vertex="1">
          <mxGeometry x="40" y="120" width="30" height="60" as="geometry" />
        </mxCell>
        <mxCell id="zeU5nnRij6K2paPK8wIY-1" value="" style="endArrow=none;html=1;rounded=0;edgeStyle=orthogonalEdgeStyle;curved=1;" parent="1" edge="1">
          <mxGeometry width="50" height="50" relative="1" as="geometry">
            <mxPoint x="70" y="120" as="sourcePoint" />
            <mxPoint x="40" y="120" as="targetPoint" />
            <Array as="points">
              <mxPoint x="70" y="60" />
              <mxPoint x="40" y="60" />
            </Array>
          </mxGeometry>
        </mxCell>
        <mxCell id="zeU5nnRij6K2paPK8wIY-3" value="1 : LogIn()" style="text;html=1;align=center;verticalAlign=middle;resizable=0;points=[];autosize=1;strokeColor=none;fillColor=none;fontSize=10;" parent="1" vertex="1">
          <mxGeometry x="20" y="20" width="70" height="30" as="geometry" />
        </mxCell>
        <mxCell id="zeU5nnRij6K2paPK8wIY-4" value="LogOut()" style="text;html=1;align=center;verticalAlign=bottom;resizable=0;points=[];autosize=1;strokeColor=none;fillColor=none;fontSize=10;" parent="1" vertex="1">
          <mxGeometry x="25" y="30" width="60" height="30" as="geometry" />
        </mxCell>
        <mxCell id="zeU5nnRij6K2paPK8wIY-29" style="edgeStyle=orthogonalEdgeStyle;rounded=0;orthogonalLoop=1;jettySize=auto;html=1;entryX=0;entryY=0;entryDx=0;entryDy=0;endArrow=open;endFill=0;exitX=0;exitY=1;exitDx=0;exitDy=0;" parent="1" edge="1">
          <mxGeometry relative="1" as="geometry">
            <Array as="points">
              <mxPoint x="261" y="240" />
              <mxPoint x="261" y="240" />
            </Array>
            <mxPoint x="260.3388986462635" y="171.14284513079895" as="sourcePoint" />
            <mxPoint x="260.3388986462635" y="308.8571548692013" as="targetPoint" />
          </mxGeometry>
        </mxCell>
        <mxCell id="zeU5nnRij6K2paPK8wIY-37" style="edgeStyle=orthogonalEdgeStyle;rounded=0;orthogonalLoop=1;jettySize=auto;html=1;exitX=1;exitY=0;exitDx=0;exitDy=0;entryX=1;entryY=1;entryDx=0;entryDy=0;endArrow=open;endFill=0;" parent="1" edge="1">
          <mxGeometry relative="1" as="geometry">
            <mxPoint x="359.6611013537365" y="308.8571548692013" as="sourcePoint" />
            <mxPoint x="359.6611013537365" y="171.14284513079883" as="targetPoint" />
          </mxGeometry>
        </mxCell>
        <mxCell id="zeU5nnRij6K2paPK8wIY-30" value="AddAlert()&lt;div&gt;GetAlerts()&lt;/div&gt;&lt;div&gt;UpdateAlert()&lt;/div&gt;&lt;div&gt;DeleteAlert()&lt;/div&gt;" style="text;html=1;align=center;verticalAlign=middle;resizable=0;points=[];autosize=1;strokeColor=none;fillColor=none;fontSize=11;" parent="1" vertex="1">
          <mxGeometry x="180" y="200" width="90" height="70" as="geometry" />
        </mxCell>
        <mxCell id="zeU5nnRij6K2paPK8wIY-32" value="ResolveAlert()" style="text;html=1;align=center;verticalAlign=top;resizable=0;points=[];autosize=1;strokeColor=none;fillColor=none;" parent="1" vertex="1">
          <mxGeometry x="260" y="400" width="100" height="30" as="geometry" />
        </mxCell>
        <mxCell id="zeU5nnRij6K2paPK8wIY-38" value="GetPSC()" style="text;html=1;align=center;verticalAlign=top;resizable=0;points=[];autosize=1;strokeColor=none;fillColor=none;fontSize=11;" parent="1" vertex="1">
          <mxGeometry x="350" y="220" width="70" height="30" as="geometry" />
        </mxCell>
        <mxCell id="zeU5nnRij6K2paPK8wIY-43" value="" style="endArrow=none;html=1;rounded=0;edgeStyle=orthogonalEdgeStyle;curved=1;" parent="1" edge="1">
          <mxGeometry width="50" height="50" relative="1" as="geometry">
            <mxPoint x="325" y="350" as="sourcePoint" />
            <mxPoint x="295" y="350" as="targetPoint" />
            <Array as="points">
              <mxPoint x="325" y="400" />
              <mxPoint x="295" y="400" />
            </Array>
          </mxGeometry>
        </mxCell>
        <mxCell id="4E9qZTmOd-qYyRF1WYUi-1" value="" style="endArrow=classic;html=1;rounded=0;" edge="1" parent="1">
          <mxGeometry width="50" height="50" relative="1" as="geometry">
            <mxPoint x="120" y="140" as="sourcePoint" />
            <mxPoint x="200" y="140" as="targetPoint" />
          </mxGeometry>
        </mxCell>
        <mxCell id="4E9qZTmOd-qYyRF1WYUi-2" value=":PerimeterSystemControl" style="whiteSpace=wrap;html=1;" vertex="1" parent="1">
          <mxGeometry x="240" y="130" width="140" height="40" as="geometry" />
        </mxCell>
        <mxCell id="4E9qZTmOd-qYyRF1WYUi-3" value=":Alert" style="whiteSpace=wrap;html=1;" vertex="1" parent="1">
          <mxGeometry x="240" y="310" width="140" height="40" as="geometry" />
        </mxCell>
      </root>
    </mxGraphModel>
  </diagram>
</mxfile>
